<?xml version="1.0" encoding="utf-8"?>
<!-- Generator: Adobe Illustrator 25.0.0, SVG Export Plug-In . SVG Version: 6.00 Build 0)  -->
<svg version="1.1" id="Capa_1" xmlns="http://www.w3.org/2000/svg" xmlns:xlink="http://www.w3.org/1999/xlink" x="0px" y="0px"
	 viewBox="0 0 512 512" style="enable-background:new 0 0 512 512;" xml:space="preserve">
<g>
	<g>
		<path d="M259.3,409c17.2,0,33.5-4.9,47.8-13.5l0,0c22.3-13.3,36.2-32.6,42.4-56.7l-66.8,0c-15.7,0-15.1-23.4,0-23.4l70.2,0
			c0-15.9-9.8-54.8-13.7-70.2h-56.4c-15.7,0-15.1-23.4,0-23.4H333c-4.8-17.6-10-36.6-20-70.2l-30.3,0c-15.7,0-15.1-23.4,0-23.4
			l23.3,0c-12.5-41.6-29.1-89.2-38.9-119.4c-2.7-8.3-13.2-10.8-19.4-4.7c-5.1,5.1-48.1,163.9-50,170.9l37.2,0
			c15.4,0,15.5,23.4,0,23.4h-43.6c-9.2,33.6-14.4,55.3-17.7,70.2h61.4c15.4,0,15.5,23.4,0,23.4h-66.2c-5.9,32.3-2.6,57.2,19.4,83.3
			C207.2,397.8,233.8,409,259.3,409z"/>
	</g>
</g>
<g>
	<g>
		<path d="M224.7,481.6c2.6,16.8,17.2,29.7,34.7,29.7c17.7,0,32.4-13.2,34.8-30.3c13.7,9.8,32.9,8.5,45.1-3.8
			c13.7-13.7,13.7-35.9,0-49.6l-14.9-14.9c-19.1,12.8-41.5,19.7-65,19.7c-24,0-46.3-7.3-64.9-19.8L176.1,431
			c-13.7,13.7-13.7,35.9,0,49.6C189.6,494,211,494.2,224.7,481.6z"/>
	</g>
</g>
</svg>
