<?xml version="1.0" encoding="utf-8"?>
<!-- Generator: Adobe Illustrator 25.0.0, SVG Export Plug-In . SVG Version: 6.00 Build 0)  -->
<svg version="1.1" id="Calque_1" xmlns="http://www.w3.org/2000/svg" xmlns:xlink="http://www.w3.org/1999/xlink" x="0px" y="0px"
	 viewBox="0 0 512 512" style="enable-background:new 0 0 512 512;" xml:space="preserve">
<path d="M254.9,252.7c-2.8,2.8-2.8,7.4,0,10.2c2.8,2.8,7.4,2.8,10.2,0c2.8-2.8,2.8-7.4,0-10.2C262.3,249.9,257.8,249.9,254.9,252.7z
	"/>
<path d="M292,84.1c-2.2-43.3-29.2-77-30.4-78.4C260.2,4,258.2,3,256,3c-2.2,0-4.2,1-5.6,2.7c-1.2,1.5-28.1,35.1-30.4,78.4
	c-11.2-5.8-23.5-8.8-36.3-8.8c-1.9,0-3.8,0.8-5.1,2.1c-1.4,1.4-2.1,3.2-2.1,5.1l0,14.5c0,25.9,12.3,49.5,32.7,64.3
	c-22.7,14.6-38,39.5-39.2,65.4c0,0,0,0.1,0,0.1c0,0,0,0.1,0,0.1c-0.9,19.4-0.4,6.4,53.5,256.9c3.4,15.3,16.8,26,32.5,26
	c15.8,0,29.1-10.8,32.5-26.1c54.3-245.7,52.1-235.8,52.2-236.1c2.4-14.4,1.9-27.6-1.7-39.2c-6.1-19.6-19-36.3-36.1-47.3
	c3.4-2.5,6.6-5.2,9.6-8.2c14.7-14.7,23.2-34.7,23.2-56.2l0-14.5c0-4-3.2-7.2-7.2-7.2C315.5,75.3,303.2,78.3,292,84.1z M256,22.8
	c8,12.4,21.7,37.9,21.7,67c0,19-5.8,37.8-14.5,54.5l0-47.3c0-4-3.2-7.2-7.2-7.2c-4,0-7.2,3.2-7.2,7.2l0,47.3
	c-8.7-16.8-14.5-35.7-14.5-54.5C234.3,60.8,248,35.2,256,22.8z M190.9,97l0-6.8c10.6,1.2,20.7,4.9,29.5,11c2,19.1,8.5,36.1,15,48.9
	c-3.9,0.9-7.7,2.2-11.4,3.6C203.5,142.2,190.9,120.8,190.9,97z M325.1,213c2.9,9.3,3.3,20.2,1.3,32.3l-0.8,3.7l-40.6,0
	c-4,0-7.2,3.2-7.2,7.2c0,4,3.2,7.2,7.2,7.2l37.5,0l-16,72.3h-35.9c-4,0-7.2,3.2-7.2,7.2c0,4,3.2,7.2,7.2,7.2h32.7l-16,72.3l-31.2,0
	c-4,0-7.2,3.2-7.2,7.2c0,4,3.2,7.2,7.2,7.2h28l-9.7,43.8c-1.9,8.7-9.5,14.7-18.4,14.7c-8.9,0-16.4-6-18.3-14.7l-19.1-87.2h23
	c4,0,7.2-3.2,7.2-7.2c0-4-3.2-7.2-7.2-7.2h-26.2l-15.9-72.3l42.1,0c4,0,7.2-3.2,7.2-7.2c0-4-3.2-7.2-7.2-7.2l-45.3,0l-11.1-50.6
	c-0.3-2.5-0.6-4.9-0.7-7.3h42.6c4,0,7.2-3.2,7.2-7.2c0-4-3.2-7.2-7.2-7.2h-41.8c5.2-30.7,34.3-57.9,70.8-57.9
	C287.8,162.1,315.7,182.9,325.1,213z M321.1,97c0,23.7-12.6,45.2-33.1,56.7c-3.7-1.5-7.6-2.7-11.4-3.6c6.5-12.8,13.1-29.8,15-48.9
	c8.9-6.1,18.9-9.8,29.5-11L321.1,97z"/>
</svg>
